# xmcd
#
# Track frame offsets:
#	150
#	20382
#	35575
#
# Disc length: 732 seconds
#
# Revision: 0
# Processed by: cddbd v1.5.2PL0 Copyright (c) Steve Scherf et al.
# Submitted via: audiograbber 1.83.01
#
DISCID=1b02da03
DTITLE=Melart - Kahta Sanaa Kaipaan [CDS)
DYEAR=1993
DGENRE=Pop
TTITLE0=Kahta Sanaa Kaipaan
TTITLE1=Itseäni Huijaan
TTITLE2=Kirje
EXTD=TR.
EXTT0=
EXTT1=
EXTT2=
PLAYORDER=
